<svg width="71" height="47" viewBox="0 0 71 47" fill="none" xmlns="http://www.w3.org/2000/svg">
<rect x="1.66675" y="1" width="67.6667" height="45" rx="7" fill="#FFD382"/>
<rect x="1.66675" y="1" width="67.6667" height="45" rx="7" stroke="white" stroke-width="2"/>
<path d="M30.7415 19.5H29.5767L32.1939 12.2273H33.4616L36.0788 19.5H34.9141L32.858 13.5483H32.8011L30.7415 19.5ZM30.9368 16.652H34.7152V17.5753H30.9368V16.652ZM38.2264 12.2273V19.5H37.1291V12.2273H38.2264ZM14.0511 34.5L11.608 31.2401H10.8338V34.5H9.73651V27.2273H10.8338V30.299H11.1925L13.9411 27.2273H15.2798L12.3714 30.4837L15.3899 34.5H14.0511ZM18.2184 34.6101C17.707 34.6101 17.2608 34.4929 16.8796 34.2585C16.4985 34.0241 16.2025 33.6963 15.9918 33.2749C15.7811 32.8535 15.6758 32.361 15.6758 31.7976C15.6758 31.2318 15.7811 30.737 15.9918 30.3132C16.2025 29.8894 16.4985 29.5604 16.8796 29.326C17.2608 29.0916 17.707 28.9744 18.2184 28.9744C18.7298 28.9744 19.176 29.0916 19.5572 29.326C19.9383 29.5604 20.2343 29.8894 20.445 30.3132C20.6557 30.737 20.761 31.2318 20.761 31.7976C20.761 32.361 20.6557 32.8535 20.445 33.2749C20.2343 33.6963 19.9383 34.0241 19.5572 34.2585C19.176 34.4929 18.7298 34.6101 18.2184 34.6101ZM18.2219 33.7188C18.5534 33.7188 18.828 33.6312 19.0458 33.456C19.2636 33.2808 19.4246 33.0476 19.5288 32.7564C19.6353 32.4652 19.6886 32.1444 19.6886 31.794C19.6886 31.446 19.6353 31.1264 19.5288 30.8352C19.4246 30.5417 19.2636 30.3061 19.0458 30.1286C18.828 29.951 18.5534 29.8622 18.2219 29.8622C17.8881 29.8622 17.6112 29.951 17.391 30.1286C17.1732 30.3061 17.011 30.5417 16.9045 30.8352C16.8003 31.1264 16.7482 31.446 16.7482 31.794C16.7482 32.1444 16.8003 32.4652 16.9045 32.7564C17.011 33.0476 17.1732 33.2808 17.391 33.456C17.6112 33.6312 17.8881 33.7188 18.2219 33.7188ZM25.0073 33.1861L26.7686 29.0455H27.6848L25.4015 34.5H24.6131L22.3759 29.0455H23.2814L25.0073 33.1861ZM22.9867 29.0455V34.5H21.9462V29.0455H22.9867ZM27.0563 34.5V29.0455H28.0897V34.5H27.0563ZM32.5659 33.1861L34.3272 29.0455H35.2434L32.96 34.5H32.1717L29.9345 29.0455H30.84L32.5659 33.1861ZM30.5453 29.0455V34.5H29.5048V29.0455H30.5453ZM34.6149 34.5V29.0455H35.6483V34.5H34.6149ZM37.5392 36.5455C37.3806 36.5455 37.2362 36.5324 37.106 36.5064C36.9758 36.4827 36.8787 36.4567 36.8148 36.4283L37.0705 35.5582C37.2646 35.6103 37.4374 35.6328 37.589 35.6257C37.7405 35.6186 37.8742 35.5618 37.9902 35.4553C38.1086 35.3487 38.2128 35.1747 38.3027 34.9332L38.4341 34.571L36.4384 29.0455H37.5748L38.9561 33.2784H39.013L40.3944 29.0455H41.5343L39.2864 35.228C39.1822 35.5121 39.0497 35.7524 38.8887 35.9489C38.7277 36.1477 38.5359 36.2969 38.3134 36.3963C38.0908 36.4957 37.8328 36.5455 37.5392 36.5455ZM46.2289 31.3146V32.2344H43.2743V31.3146H46.2289ZM43.5726 29.0455V34.5H42.5321V29.0455H43.5726ZM46.9711 29.0455V34.5H45.9341V29.0455H46.9711ZM49.432 33.0121L51.8361 29.0455H52.9796V34.5H51.9391V30.5298L49.5456 34.5H48.3915V29.0455H49.432V33.0121ZM54.4071 34.5V29.0455H55.4689V31.3324H55.9803L57.7807 29.0455H59.0946L56.9817 31.6982L59.1195 34.5H57.802L56.1578 32.3196H55.4689V34.5H54.4071ZM60.6438 34.5675C60.4497 34.5675 60.2828 34.4988 60.1431 34.3615C60.0034 34.2218 59.9336 34.0537 59.9336 33.8572C59.9336 33.6631 60.0034 33.4974 60.1431 33.3601C60.2828 33.2204 60.4497 33.1506 60.6438 33.1506C60.8379 33.1506 61.0049 33.2204 61.1445 33.3601C61.2842 33.4974 61.354 33.6631 61.354 33.8572C61.354 33.9875 61.3209 34.107 61.2546 34.2159C61.1907 34.3224 61.1055 34.4077 60.9989 34.4716C60.8924 34.5355 60.774 34.5675 60.6438 34.5675Z" fill="#101828"/>
</svg>
