<svg width="70" height="47" viewBox="0 0 70 47" fill="none" xmlns="http://www.w3.org/2000/svg">
<rect width="69.6667" height="47" rx="8" fill="#EFF2F8"/>
<mask id="mask0_4474_24176" style="mask-type:alpha" maskUnits="userSpaceOnUse" x="28" y="8" width="13" height="12">
<rect x="28.8333" y="8" width="12" height="12" fill="#D9D9D9"/>
</mask>
<g mask="url(#mask0_4474_24176)">
<path d="M30.8333 17.9999C30.5583 17.9999 30.3228 17.902 30.127 17.7062C29.9312 17.5103 29.8333 17.2749 29.8333 16.9999V10.9999C29.8333 10.7249 29.9312 10.4895 30.127 10.2937C30.3228 10.0978 30.5583 9.99993 30.8333 9.99993H38.8333C39.1083 9.99993 39.3437 10.0978 39.5395 10.2937C39.7353 10.4895 39.8333 10.7249 39.8333 10.9999V16.9999C39.8333 17.2749 39.7353 17.5103 39.5395 17.7062C39.3437 17.902 39.1083 17.9999 38.8333 17.9999H30.8333ZM34.8333 14.4999L30.8333 11.9999V16.9999H38.8333V11.9999L34.8333 14.4999ZM34.8333 13.4999L38.8333 10.9999H30.8333L34.8333 13.4999ZM30.8333 11.9999V10.9999V16.9999V11.9999Z" fill="#667085"/>
</g>
<path d="M17.1766 31.0653V31.8466H14.1794V31.0653H17.1766ZM12.4464 32.7273H13.3555C13.4337 33.2386 13.6065 33.6316 13.874 33.9062C14.1415 34.1809 14.57 34.3182 15.1595 34.3182C15.5762 34.3182 15.9242 34.201 16.2035 33.9666C16.4853 33.7322 16.696 33.4221 16.8356 33.0362C16.9777 32.6503 17.0487 32.2301 17.0487 31.7756V30.9659C17.0487 30.464 16.9694 30.0225 16.8108 29.6413C16.6545 29.2578 16.4285 28.9595 16.1325 28.7464C15.839 28.531 15.4862 28.4233 15.0743 28.4233C14.7144 28.4233 14.4161 28.4872 14.1794 28.6151C13.9427 28.7429 13.758 28.9264 13.6254 29.1655C13.4928 29.4046 13.4029 29.6922 13.3555 30.0284H12.4464C12.4938 29.5644 12.6205 29.1525 12.8264 28.7926C13.0347 28.4304 13.3248 28.1463 13.6964 27.9403C14.0705 27.732 14.5298 27.6278 15.0743 27.6278C15.6661 27.6278 16.1775 27.7663 16.6084 28.0433C17.0392 28.3179 17.3719 28.705 17.6062 29.2045C17.8406 29.7017 17.9578 30.2841 17.9578 30.9517V31.7898C17.9578 32.4574 17.8418 33.0398 17.6098 33.5369C17.3778 34.0317 17.0523 34.4164 16.6332 34.6911C16.2142 34.9633 15.723 35.0994 15.1595 35.0994C14.5819 35.0994 14.1013 34.9953 13.7178 34.7869C13.3366 34.5762 13.0419 34.2921 12.8335 33.9347C12.6276 33.5748 12.4985 33.1723 12.4464 32.7273ZM18.8429 35V34.2188H19.0418C19.2051 34.2188 19.3413 34.1868 19.4502 34.1229C19.5591 34.0566 19.6467 33.9418 19.713 33.7784C19.7816 33.6127 19.8337 33.383 19.8692 33.0895C19.9071 32.7936 19.9343 32.4171 19.9509 31.9602L20.0503 29.5455H23.6867V35H22.8486V30.3267H20.8458L20.7605 32.2727C20.7416 32.7202 20.7014 33.1143 20.6398 33.4553C20.5806 33.7938 20.4895 34.0779 20.3664 34.3075C20.2456 34.5372 20.0846 34.71 19.8834 34.826C19.6822 34.942 19.4301 35 19.127 35H18.8429ZM25.8351 35.0568C25.6599 35.0568 25.5096 34.9941 25.3841 34.8686C25.2586 34.7431 25.1959 34.5928 25.1959 34.4176C25.1959 34.2424 25.2586 34.0921 25.3841 33.9666C25.5096 33.8411 25.6599 33.7784 25.8351 33.7784C26.0103 33.7784 26.1606 33.8411 26.2861 33.9666C26.4116 34.0921 26.4743 34.2424 26.4743 34.4176C26.4743 34.5336 26.4447 34.6402 26.3855 34.7372C26.3287 34.8343 26.2518 34.9124 26.1547 34.9716C26.06 35.0284 25.9535 35.0568 25.8351 35.0568ZM30.7907 35V29.5455H35.0805V35H34.2424V30.3267H31.6288V35H30.7907ZM38.8269 35.1136C38.3345 35.1136 37.9025 34.9964 37.5308 34.7621C37.1615 34.5277 36.8726 34.1998 36.6643 33.7784C36.4583 33.357 36.3554 32.8646 36.3554 32.3011C36.3554 31.733 36.4583 31.237 36.6643 30.8132C36.8726 30.3894 37.1615 30.0604 37.5308 29.826C37.9025 29.5916 38.3345 29.4744 38.8269 29.4744C39.3194 29.4744 39.7502 29.5916 40.1196 29.826C40.4912 30.0604 40.7801 30.3894 40.986 30.8132C41.1944 31.237 41.2985 31.733 41.2985 32.3011C41.2985 32.8646 41.1944 33.357 40.986 33.7784C40.7801 34.1998 40.4912 34.5277 40.1196 34.7621C39.7502 34.9964 39.3194 35.1136 38.8269 35.1136ZM38.8269 34.3608C39.201 34.3608 39.5088 34.2649 39.7502 34.0732C39.9917 33.8814 40.1705 33.6293 40.2865 33.3168C40.4025 33.0043 40.4605 32.6657 40.4605 32.3011C40.4605 31.9366 40.4025 31.5968 40.2865 31.282C40.1705 30.9671 39.9917 30.7126 39.7502 30.5185C39.5088 30.3243 39.201 30.2273 38.8269 30.2273C38.4529 30.2273 38.1451 30.3243 37.9037 30.5185C37.6622 30.7126 37.4834 30.9671 37.3674 31.282C37.2514 31.5968 37.1934 31.9366 37.1934 32.3011C37.1934 32.6657 37.2514 33.0043 37.3674 33.3168C37.4834 33.6293 37.6622 33.8814 37.9037 34.0732C38.1451 34.2649 38.4529 34.3608 38.8269 34.3608ZM46.7824 29.5455V35H45.9443V29.5455H46.7824ZM46.4557 32.1449V32.9261C46.2663 32.9972 46.0781 33.0599 45.891 33.1143C45.704 33.1664 45.5075 33.2079 45.3016 33.2386C45.0956 33.267 44.8695 33.2812 44.6233 33.2812C44.0054 33.2812 43.5094 33.1143 43.1354 32.7805C42.7637 32.4467 42.5778 31.946 42.5778 31.2784V29.5312H43.4159V31.2784C43.4159 31.5578 43.4692 31.7874 43.5757 31.9673C43.6822 32.1473 43.8267 32.281 44.0089 32.3686C44.1912 32.4562 44.396 32.5 44.6233 32.5C44.9784 32.5 45.2992 32.468 45.5856 32.4041C45.8745 32.3378 46.1645 32.2514 46.4557 32.1449ZM47.5778 30.3267V29.5455H52.0097V30.3267H50.2199V35H49.3818V30.3267H47.5778ZM54.554 35.1278C54.2084 35.1278 53.8947 35.0627 53.613 34.9325C53.3313 34.8 53.1075 34.6094 52.9418 34.3608C52.7761 34.1098 52.6932 33.8068 52.6932 33.4517C52.6932 33.1392 52.7548 32.8859 52.8779 32.6918C53.001 32.4953 53.1655 32.3414 53.3715 32.2301C53.5775 32.1188 53.8048 32.036 54.0533 31.9815C54.3043 31.9247 54.5564 31.8797 54.8097 31.8466C55.1412 31.804 55.4099 31.772 55.6158 31.7507C55.8242 31.727 55.9757 31.688 56.0704 31.6335C56.1674 31.5791 56.216 31.4844 56.216 31.3494V31.321C56.216 30.9706 56.1201 30.6984 55.9283 30.5043C55.7389 30.3101 55.4513 30.2131 55.0654 30.2131C54.6653 30.2131 54.3516 30.3007 54.1244 30.4759C53.8971 30.651 53.7373 30.8381 53.645 31.0369L52.8495 30.7528C52.9915 30.4214 53.1809 30.1634 53.4177 29.9787C53.6568 29.7917 53.9172 29.6615 54.1989 29.5881C54.483 29.5123 54.7624 29.4744 55.037 29.4744C55.2122 29.4744 55.4134 29.4957 55.6407 29.5384C55.8703 29.5786 56.0917 29.6626 56.3048 29.7905C56.5202 29.9183 56.6989 30.1113 56.841 30.3693C56.983 30.6274 57.054 30.973 57.054 31.4062V35H56.216V34.2614H56.1734C56.1165 34.3797 56.0218 34.5064 55.8893 34.6413C55.7567 34.7763 55.5803 34.8911 55.3602 34.9858C55.14 35.0805 54.8713 35.1278 54.554 35.1278ZM54.6819 34.375C55.0133 34.375 55.2927 34.3099 55.52 34.1797C55.7496 34.0495 55.9224 33.8814 56.0384 33.6754C56.1568 33.4695 56.216 33.2528 56.216 33.0256V32.2585C56.1805 32.3011 56.1023 32.3402 55.9816 32.3757C55.8632 32.4089 55.7259 32.4384 55.5697 32.4645C55.4158 32.4882 55.2655 32.5095 55.1187 32.5284C54.9743 32.545 54.8571 32.5592 54.7671 32.571C54.5493 32.5994 54.3457 32.6456 54.1563 32.7095C53.9693 32.7711 53.8178 32.8646 53.7018 32.9901C53.5881 33.1132 53.5313 33.2812 53.5313 33.4943C53.5313 33.7855 53.639 34.0057 53.8545 34.1548C54.0723 34.3016 54.3481 34.375 54.6819 34.375Z" fill="#101828"/>
</svg>
