<svg width="70" height="57" viewBox="0 0 70 57" fill="none" xmlns="http://www.w3.org/2000/svg">
<rect width="69.6667" height="57" rx="8" fill="#EFF2F8"/>
<mask id="mask0_4474_24299" style="mask-type:alpha" maskUnits="userSpaceOnUse" x="22" y="8" width="25" height="24">
<rect x="22.8333" y="8" width="24" height="24" fill="#D9D9D9"/>
</mask>
<g mask="url(#mask0_4474_24299)">
<path d="M33.7832 25.4326L39.0871 20.1288L38.0025 19.0442L33.7679 23.2788L31.6486 21.1596L30.5794 22.2288L33.7832 25.4326ZM29.141 29.5C28.6358 29.5 28.2083 29.325 27.8583 28.975C27.5083 28.625 27.3333 28.1974 27.3333 27.6923V12.3077C27.3333 11.8026 27.5083 11.375 27.8583 11.025C28.2083 10.675 28.6358 10.5 29.141 10.5H37.0833L42.3332 15.75V27.6923C42.3332 28.1974 42.1582 28.625 41.8082 28.975C41.4582 29.325 41.0306 29.5 40.5255 29.5H29.141ZM36.3333 16.5V12H29.141C29.064 12 28.9935 12.032 28.9294 12.0961C28.8653 12.1602 28.8332 12.2308 28.8332 12.3077V27.6923C28.8332 27.7692 28.8653 27.8397 28.9294 27.9038C28.9935 27.9679 29.064 28 29.141 28H40.5255C40.6024 28 40.673 27.9679 40.7371 27.9038C40.8012 27.8397 40.8332 27.7692 40.8332 27.6923V16.5H36.3333Z" fill="#667085"/>
</g>
<path d="M4.32722 38.5938H5.47778C6.01756 38.5938 6.49696 38.7145 6.91599 38.956C7.33503 39.1974 7.6641 39.5336 7.90321 39.9645C8.14232 40.3954 8.26187 40.8949 8.26187 41.4631C8.26187 42.0312 8.14232 42.532 7.90321 42.9652C7.6641 43.3984 7.33503 43.737 6.91599 43.9808C6.49696 44.2247 6.01756 44.3466 5.47778 44.3466H4.32722C3.78744 44.3466 3.30804 44.2259 2.889 43.9844C2.46997 43.7429 2.1409 43.4067 1.90179 42.9759C1.66268 42.545 1.54312 42.0455 1.54312 41.4773C1.54312 40.9091 1.66268 40.4084 1.90179 39.9751C2.1409 39.5419 2.46997 39.2034 2.889 38.9595C3.30804 38.7157 3.78744 38.5938 4.32722 38.5938ZM4.32722 39.375C3.91528 39.375 3.56727 39.4614 3.28318 39.6342C3.00146 39.8071 2.78721 40.0509 2.64043 40.3658C2.49601 40.6806 2.42381 41.0511 2.42381 41.4773C2.42381 41.8987 2.49601 42.2656 2.64043 42.5781C2.78721 42.8906 3.00146 43.1333 3.28318 43.3061C3.56727 43.4789 3.91528 43.5653 4.32722 43.5653H5.47778C5.88972 43.5653 6.23654 43.4789 6.51827 43.3061C6.80236 43.1333 7.01661 42.8894 7.16102 42.5746C7.3078 42.2597 7.38119 41.8892 7.38119 41.4631C7.38119 41.0417 7.3078 40.6747 7.16102 40.3622C7.01661 40.0497 6.80236 39.8071 6.51827 39.6342C6.23654 39.4614 5.88972 39.375 5.47778 39.375H4.32722ZM5.34994 37.5994V45.2983H4.46926V37.5994H5.34994ZM9.14078 45V44.2188H9.33964C9.503 44.2188 9.63912 44.1868 9.74802 44.1229C9.85693 44.0566 9.94452 43.9418 10.0108 43.7784C10.0795 43.6127 10.1315 43.383 10.1671 43.0895C10.2049 42.7936 10.2322 42.4171 10.2487 41.9602L10.3482 39.5455H13.9845V45H13.1465V40.3267H11.1436L11.0584 42.2727C11.0395 42.7202 10.9992 43.1143 10.9377 43.4553C10.8785 43.7938 10.7873 44.0779 10.6642 44.3075C10.5435 44.5372 10.3825 44.71 10.1813 44.826C9.98003 44.942 9.7279 45 9.42487 45H9.14078ZM17.8091 45.1136C17.2835 45.1136 16.8302 44.9976 16.449 44.7656C16.0702 44.5312 15.7779 44.2045 15.5719 43.7855C15.3683 43.3641 15.2665 42.8741 15.2665 42.3153C15.2665 41.7566 15.3683 41.2642 15.5719 40.8381C15.7779 40.4096 16.0643 40.0758 16.4313 39.8366C16.8006 39.5952 17.2315 39.4744 17.7239 39.4744C18.008 39.4744 18.2885 39.5218 18.5655 39.6165C18.8425 39.7112 19.0946 39.8651 19.3219 40.0781C19.5492 40.2888 19.7303 40.5682 19.8652 40.9162C20.0002 41.2642 20.0676 41.6927 20.0676 42.2017V42.5568H15.8631V41.8324H19.2154C19.2154 41.5246 19.1538 41.25 19.0307 41.0085C18.91 40.767 18.7371 40.5765 18.5122 40.4368C18.2897 40.2971 18.0269 40.2273 17.7239 40.2273C17.3901 40.2273 17.1012 40.3101 16.8574 40.4759C16.6159 40.6392 16.4301 40.8523 16.2999 41.1151C16.1697 41.3778 16.1046 41.6596 16.1046 41.9602V42.4432C16.1046 42.8551 16.1756 43.2043 16.3176 43.4908C16.462 43.7749 16.6621 43.9915 16.9178 44.1406C17.1735 44.2874 17.4706 44.3608 17.8091 44.3608C18.0293 44.3608 18.2281 44.33 18.4057 44.2685C18.5856 44.2045 18.7407 44.1098 18.8709 43.9844C19.0011 43.8565 19.1017 43.6979 19.1727 43.5085L19.9824 43.7358C19.8972 44.0104 19.7539 44.2519 19.5527 44.4602C19.3515 44.6662 19.1029 44.8272 18.807 44.9432C18.511 45.0568 18.1784 45.1136 17.8091 45.1136ZM21.3425 39.5455H22.1806V44.2188H24.2402V39.5455H25.0783V44.2188H27.1379V39.5455H27.976V45H21.3425V39.5455ZM29.5065 45V39.5455H30.3446V41.9176H30.8986L32.8588 39.5455H33.9384L31.7367 42.1733L33.9668 45H32.8872L31.0975 42.6989H30.3446V45H29.5065ZM36.4828 45.1278C36.1371 45.1278 35.8234 45.0627 35.5417 44.9325C35.26 44.8 35.0363 44.6094 34.8705 44.3608C34.7048 44.1098 34.622 43.8068 34.622 43.4517C34.622 43.1392 34.6835 42.8859 34.8066 42.6918C34.9297 42.4953 35.0943 42.3414 35.3002 42.2301C35.5062 42.1188 35.7335 42.036 35.982 41.9815C36.233 41.9247 36.4851 41.8797 36.7384 41.8466C37.0699 41.804 37.3386 41.772 37.5445 41.7507C37.7529 41.727 37.9044 41.688 37.9991 41.6335C38.0962 41.5791 38.1447 41.4844 38.1447 41.3494V41.321C38.1447 40.9706 38.0488 40.6984 37.857 40.5043C37.6677 40.3101 37.38 40.2131 36.9941 40.2131C36.594 40.2131 36.2803 40.3007 36.0531 40.4759C35.8258 40.651 35.666 40.8381 35.5737 41.0369L34.7782 40.7528C34.9203 40.4214 35.1096 40.1634 35.3464 39.9787C35.5855 39.7917 35.8459 39.6615 36.1276 39.5881C36.4117 39.5123 36.6911 39.4744 36.9657 39.4744C37.1409 39.4744 37.3421 39.4957 37.5694 39.5384C37.799 39.5786 38.0204 39.6626 38.2335 39.7905C38.4489 39.9183 38.6276 40.1113 38.7697 40.3693C38.9117 40.6274 38.9828 40.973 38.9828 41.4062V45H38.1447V44.2614H38.1021C38.0453 44.3797 37.9506 44.5064 37.818 44.6413C37.6854 44.7763 37.509 44.8911 37.2889 44.9858C37.0687 45.0805 36.8 45.1278 36.4828 45.1278ZM36.6106 44.375C36.942 44.375 37.2214 44.3099 37.4487 44.1797C37.6783 44.0495 37.8511 43.8814 37.9671 43.6754C38.0855 43.4695 38.1447 43.2528 38.1447 43.0256V42.2585C38.1092 42.3011 38.0311 42.3402 37.9103 42.3757C37.7919 42.4089 37.6546 42.4384 37.4984 42.4645C37.3445 42.4882 37.1942 42.5095 37.0474 42.5284C36.903 42.545 36.7858 42.5592 36.6958 42.571C36.478 42.5994 36.2744 42.6456 36.085 42.7095C35.898 42.7711 35.7465 42.8646 35.6305 42.9901C35.5168 43.1132 35.46 43.2812 35.46 43.4943C35.46 43.7855 35.5677 44.0057 35.7832 44.1548C36.001 44.3016 36.2768 44.375 36.6106 44.375ZM43.0834 37.3864L40.7397 46.0938H39.9726L42.3164 37.3864H43.0834ZM46.6905 38.5938H47.8411C48.3808 38.5938 48.8602 38.7145 49.2793 38.956C49.6983 39.1974 50.0274 39.5336 50.2665 39.9645C50.5056 40.3954 50.6252 40.8949 50.6252 41.4631C50.6252 42.0312 50.5056 42.532 50.2665 42.9652C50.0274 43.3984 49.6983 43.737 49.2793 43.9808C48.8602 44.2247 48.3808 44.3466 47.8411 44.3466H46.6905C46.1507 44.3466 45.6713 44.2259 45.2523 43.9844C44.8333 43.7429 44.5042 43.4067 44.2651 42.9759C44.026 42.545 43.9064 42.0455 43.9064 41.4773C43.9064 40.9091 44.026 40.4084 44.2651 39.9751C44.5042 39.5419 44.8333 39.2034 45.2523 38.9595C45.6713 38.7157 46.1507 38.5938 46.6905 38.5938ZM46.6905 39.375C46.2786 39.375 45.9306 39.4614 45.6465 39.6342C45.3647 39.8071 45.1505 40.0509 45.0037 40.3658C44.8593 40.6806 44.7871 41.0511 44.7871 41.4773C44.7871 41.8987 44.8593 42.2656 45.0037 42.5781C45.1505 42.8906 45.3647 43.1333 45.6465 43.3061C45.9306 43.4789 46.2786 43.5653 46.6905 43.5653H47.8411C48.253 43.5653 48.5998 43.4789 48.8815 43.3061C49.1656 43.1333 49.3799 42.8894 49.5243 42.5746C49.6711 42.2597 49.7445 41.8892 49.7445 41.4631C49.7445 41.0417 49.6711 40.6747 49.5243 40.3622C49.3799 40.0497 49.1656 39.8071 48.8815 39.6342C48.5998 39.4614 48.253 39.375 47.8411 39.375H46.6905ZM47.7132 37.5994V45.2983H46.8325V37.5994H47.7132ZM53.5921 45.1278C53.2465 45.1278 52.9328 45.0627 52.6511 44.9325C52.3694 44.8 52.1456 44.6094 51.9799 44.3608C51.8142 44.1098 51.7313 43.8068 51.7313 43.4517C51.7313 43.1392 51.7929 42.8859 51.916 42.6918C52.0391 42.4953 52.2036 42.3414 52.4096 42.2301C52.6156 42.1188 52.8428 42.036 53.0914 41.9815C53.3424 41.9247 53.5945 41.8797 53.8478 41.8466C54.1793 41.804 54.448 41.772 54.6539 41.7507C54.8623 41.727 55.0138 41.688 55.1085 41.6335C55.2055 41.5791 55.2541 41.4844 55.2541 41.3494V41.321C55.2541 40.9706 55.1582 40.6984 54.9664 40.5043C54.777 40.3101 54.4894 40.2131 54.1035 40.2131C53.7034 40.2131 53.3897 40.3007 53.1624 40.4759C52.9352 40.651 52.7754 40.8381 52.683 41.0369L51.8876 40.7528C52.0296 40.4214 52.219 40.1634 52.4558 39.9787C52.6949 39.7917 52.9553 39.6615 53.237 39.5881C53.5211 39.5123 53.8005 39.4744 54.0751 39.4744C54.2503 39.4744 54.4515 39.4957 54.6788 39.5384C54.9084 39.5786 55.1298 39.6626 55.3428 39.7905C55.5583 39.9183 55.737 40.1113 55.8791 40.3693C56.0211 40.6274 56.0921 40.973 56.0921 41.4062V45H55.2541V44.2614H55.2114C55.1546 44.3797 55.0599 44.5064 54.9274 44.6413C54.7948 44.7763 54.6184 44.8911 54.3982 44.9858C54.1781 45.0805 53.9094 45.1278 53.5921 45.1278ZM53.72 44.375C54.0514 44.375 54.3308 44.3099 54.558 44.1797C54.7877 44.0495 54.9605 43.8814 55.0765 43.6754C55.1949 43.4695 55.2541 43.2528 55.2541 43.0256V42.2585C55.2186 42.3011 55.1404 42.3402 55.0197 42.3757C54.9013 42.4089 54.764 42.4384 54.6078 42.4645C54.4539 42.4882 54.3035 42.5095 54.1568 42.5284C54.0123 42.545 53.8952 42.5592 53.8052 42.571C53.5874 42.5994 53.3838 42.6456 53.1944 42.7095C53.0074 42.7711 52.8559 42.8646 52.7399 42.9901C52.6262 43.1132 52.5694 43.2812 52.5694 43.4943C52.5694 43.7855 52.6771 44.0057 52.8926 44.1548C53.1104 44.3016 53.3862 44.375 53.72 44.375ZM58.4599 43.7642L61.0877 39.5455H62.0536V45H61.2155V40.7812L58.6019 45H57.6218V39.5455H58.4599V43.7642ZM60.5337 37.7273H61.315C61.315 38.1108 61.1824 38.4245 60.9172 38.6683C60.6521 38.9122 60.2922 39.0341 59.8377 39.0341C59.3902 39.0341 59.034 38.9122 58.7688 38.6683C58.506 38.4245 58.3746 38.1108 58.3746 37.7273H59.1559C59.1559 37.9119 59.2068 38.0741 59.3086 38.2138C59.4127 38.3535 59.5891 38.4233 59.8377 38.4233C60.0863 38.4233 60.2638 38.3535 60.3704 38.2138C60.4793 38.0741 60.5337 37.9119 60.5337 37.7273ZM63.1056 45V44.2188H63.3045C63.4678 44.2188 63.604 44.1868 63.7129 44.1229C63.8218 44.0566 63.9094 43.9418 63.9757 43.7784C64.0443 43.6127 64.0964 43.383 64.1319 43.0895C64.1698 42.7936 64.197 42.4171 64.2136 41.9602L64.313 39.5455H67.9494V45H67.1113V40.3267H65.1085L65.0232 42.2727C65.0043 42.7202 64.9641 43.1143 64.9025 43.4553C64.8433 43.7938 64.7522 44.0779 64.6291 44.3075C64.5083 44.5372 64.3473 44.71 64.1461 44.826C63.9449 44.942 63.6927 45 63.3897 45H63.1056Z" fill="#101828"/>
</svg>
