<svg width="70" height="57" viewBox="0 0 70 57" fill="none" xmlns="http://www.w3.org/2000/svg">
<rect x="0.333252" width="69.6667" height="57" rx="8" fill="#EFF2F8"/>
<mask id="mask0_4474_24278" style="mask-type:alpha" maskUnits="userSpaceOnUse" x="23" y="8" width="25" height="24">
<rect x="23.1665" y="8" width="24" height="24" fill="#D9D9D9"/>
</mask>
<g mask="url(#mask0_4474_24278)">
<path d="M30.1665 21.6153C29.719 21.6153 29.3379 21.458 29.0232 21.1432C28.7085 20.8285 28.5511 20.4474 28.5511 20C28.5511 19.5525 28.7085 19.1715 29.0232 18.8567C29.3379 18.542 29.719 18.3846 30.1665 18.3846C30.6139 18.3846 30.995 18.542 31.3097 18.8567C31.6244 19.1715 31.7818 19.5525 31.7818 20C31.7818 20.4474 31.6244 20.8285 31.3097 21.1432C30.995 21.458 30.6139 21.6153 30.1665 21.6153ZM30.1665 25.5C28.6408 25.5 27.3428 24.9647 26.2723 23.8942C25.2018 22.8237 24.6665 21.5256 24.6665 20C24.6665 18.4743 25.2018 17.1763 26.2723 16.1058C27.3428 15.0353 28.6408 14.5 30.1665 14.5C31.2382 14.5 32.2075 14.7766 33.0741 15.3298C33.9408 15.883 34.6023 16.6064 35.0587 17.5H44.0607L46.5606 20L42.7145 23.8269L40.8588 22.4326L38.9549 23.8461L37.003 22.5H35.0587C34.6023 23.3871 33.9408 24.1089 33.0741 24.6653C32.2075 25.2217 31.2382 25.5 30.1665 25.5ZM30.1665 24C31.1254 24 31.9559 23.7102 32.6578 23.1308C33.3597 22.5513 33.8177 21.841 34.0318 21H37.4742L38.9146 21.9961L40.8684 20.5673L42.5665 21.8654L44.4319 20L43.4319 19H34.0318C33.8177 18.159 33.3597 17.4487 32.6578 16.8692C31.9559 16.2897 31.1254 16 30.1665 16C29.0665 16 28.1248 16.3916 27.3415 17.175C26.5581 17.9583 26.1665 18.9 26.1665 20C26.1665 21.1 26.5581 22.0416 27.3415 22.825C28.1248 23.6083 29.0665 24 30.1665 24Z" fill="#667085"/>
</g>
<path d="M5.93044 45H5.00715L7.6776 37.7273H8.58669L11.2571 45H10.3339L8.16056 38.8778H8.10374L5.93044 45ZM6.27135 42.1591H9.99294V42.9403H6.27135V42.1591ZM12.2763 45V39.5455H16.5661V45H15.728V40.3267H13.1144V45H12.2763ZM18.0966 45V39.5455H22.3864V45H21.5483V40.3267H18.9347V45H18.0966ZM25.5221 45.1278C25.1764 45.1278 24.8627 45.0627 24.581 44.9325C24.2993 44.8 24.0756 44.6094 23.9098 44.3608C23.7441 44.1098 23.6613 43.8068 23.6613 43.4517C23.6613 43.1392 23.7228 42.8859 23.8459 42.6918C23.969 42.4953 24.1336 42.3414 24.3395 42.2301C24.5455 42.1188 24.7728 42.036 25.0214 41.9815C25.2723 41.9247 25.5244 41.8797 25.7777 41.8466C26.1092 41.804 26.3779 41.772 26.5839 41.7507C26.7922 41.727 26.9437 41.688 27.0384 41.6335C27.1355 41.5791 27.184 41.4844 27.184 41.3494V41.321C27.184 40.9706 27.0881 40.6984 26.8964 40.5043C26.707 40.3101 26.4193 40.2131 26.0334 40.2131C25.6333 40.2131 25.3196 40.3007 25.0924 40.4759C24.8651 40.651 24.7053 40.8381 24.613 41.0369L23.8175 40.7528C23.9596 40.4214 24.149 40.1634 24.3857 39.9787C24.6248 39.7917 24.8852 39.6615 25.1669 39.5881C25.451 39.5123 25.7304 39.4744 26.005 39.4744C26.1802 39.4744 26.3814 39.4957 26.6087 39.5384C26.8383 39.5786 27.0597 39.6626 27.2728 39.7905C27.4882 39.9183 27.6669 40.1113 27.809 40.3693C27.951 40.6274 28.0221 40.973 28.0221 41.4062V45H27.184V44.2614H27.1414C27.0846 44.3797 26.9899 44.5064 26.8573 44.6413C26.7247 44.7763 26.5483 44.8911 26.3282 44.9858C26.108 45.0805 25.8393 45.1278 25.5221 45.1278ZM25.6499 44.375C25.9813 44.375 26.2607 44.3099 26.488 44.1797C26.7176 44.0495 26.8904 43.8814 27.0064 43.6754C27.1248 43.4695 27.184 43.2528 27.184 43.0256V42.2585C27.1485 42.3011 27.0704 42.3402 26.9496 42.3757C26.8312 42.4089 26.6939 42.4384 26.5377 42.4645C26.3838 42.4882 26.2335 42.5095 26.0867 42.5284C25.9423 42.545 25.8251 42.5592 25.7351 42.571C25.5173 42.5994 25.3137 42.6456 25.1243 42.7095C24.9373 42.7711 24.7858 42.8646 24.6698 42.9901C24.5562 43.1132 24.4993 43.2812 24.4993 43.4943C24.4993 43.7855 24.6071 44.0057 24.8225 44.1548C25.0403 44.3016 25.3161 44.375 25.6499 44.375ZM29.5517 47.0455V39.5455H30.3614V40.4119H30.4608C30.5224 40.3172 30.6076 40.1965 30.7165 40.0497C30.8278 39.9006 30.9864 39.768 31.1923 39.652C31.4007 39.5336 31.6824 39.4744 32.0375 39.4744C32.4968 39.4744 32.9016 39.5893 33.252 39.8189C33.6024 40.0485 33.8758 40.3741 34.0723 40.7955C34.2688 41.2169 34.3671 41.714 34.3671 42.2869C34.3671 42.8646 34.2688 43.3653 34.0723 43.7891C33.8758 44.2105 33.6036 44.5372 33.2555 44.7692C32.9075 44.9988 32.5063 45.1136 32.0517 45.1136C31.7013 45.1136 31.4208 45.0556 31.2101 44.9396C30.9994 44.8213 30.8372 44.6875 30.7236 44.5384C30.61 44.3868 30.5224 44.2614 30.4608 44.1619H30.3898V47.0455H29.5517ZM30.3756 42.2727C30.3756 42.6847 30.4359 43.0481 30.5567 43.3629C30.6774 43.6754 30.8538 43.9205 31.0858 44.098C31.3178 44.2732 31.6019 44.3608 31.9381 44.3608C32.2885 44.3608 32.5808 44.2685 32.8152 44.0838C33.052 43.8968 33.2295 43.6458 33.3479 43.331C33.4686 43.0137 33.529 42.661 33.529 42.2727C33.529 41.8892 33.4698 41.5436 33.3514 41.2358C33.2354 40.9257 33.0591 40.6806 32.8223 40.5007C32.5879 40.3184 32.2932 40.2273 31.9381 40.2273C31.5972 40.2273 31.3107 40.3137 31.0787 40.4865C30.8467 40.657 30.6715 40.8961 30.5531 41.2038C30.4348 41.5092 30.3756 41.8655 30.3756 42.2727ZM36.2563 45.0568C36.0811 45.0568 35.9307 44.9941 35.8053 44.8686C35.6798 44.7431 35.6171 44.5928 35.6171 44.4176C35.6171 44.2424 35.6798 44.0921 35.8053 43.9666C35.9307 43.8411 36.0811 43.7784 36.2563 43.7784C36.4314 43.7784 36.5818 43.8411 36.7073 43.9666C36.8327 44.0921 36.8955 44.2424 36.8955 44.4176C36.8955 44.5336 36.8659 44.6402 36.8067 44.7372C36.7499 44.8343 36.6729 44.9124 36.5759 44.9716C36.4812 45.0284 36.3746 45.0568 36.2563 45.0568ZM41.2119 45V39.5455H42.0499V41.9176H42.6039L44.5641 39.5455H45.6437L43.442 42.1733L45.6721 45H44.5926L42.8028 42.6989H42.0499V45H41.2119ZM46.1 45V44.2188H46.2989C46.4622 44.2188 46.5984 44.1868 46.7073 44.1229C46.8162 44.0566 46.9037 43.9418 46.97 43.7784C47.0387 43.6127 47.0908 43.383 47.1263 43.0895C47.1642 42.7936 47.1914 42.4171 47.208 41.9602L47.3074 39.5455H50.9438V45H50.1057V40.3267H48.1028L48.0176 42.2727C47.9987 42.7202 47.9584 43.1143 47.8969 43.4553C47.8377 43.7938 47.7466 44.0779 47.6234 44.3075C47.5027 44.5372 47.3417 44.71 47.1405 44.826C46.9393 44.942 46.6871 45 46.3841 45H46.1ZM55.095 41.9318V42.7131H52.2115V41.9318H55.095ZM52.9217 39.5455V45H52.0837V39.5455H52.9217ZM56.7712 45.1136C56.2787 45.1136 55.8467 44.9964 55.475 44.7621C55.1057 44.5277 54.8169 44.1998 54.6085 43.7784C54.4026 43.357 54.2996 42.8646 54.2996 42.3011C54.2996 41.733 54.4026 41.237 54.6085 40.8132C54.8169 40.3894 55.1057 40.0604 55.475 39.826C55.8467 39.5916 56.2787 39.4744 56.7712 39.4744C57.2636 39.4744 57.6945 39.5916 58.0638 39.826C58.4355 40.0604 58.7243 40.3894 58.9303 40.8132C59.1386 41.237 59.2428 41.733 59.2428 42.3011C59.2428 42.8646 59.1386 43.357 58.9303 43.7784C58.7243 44.1998 58.4355 44.5277 58.0638 44.7621C57.6945 44.9964 57.2636 45.1136 56.7712 45.1136ZM56.7712 44.3608C57.1452 44.3608 57.453 44.2649 57.6945 44.0732C57.9359 43.8814 58.1147 43.6293 58.2307 43.3168C58.3467 43.0043 58.4047 42.6657 58.4047 42.3011C58.4047 41.9366 58.3467 41.5968 58.2307 41.282C58.1147 40.9671 57.9359 40.7126 57.6945 40.5185C57.453 40.3243 57.1452 40.2273 56.7712 40.2273C56.3971 40.2273 56.0894 40.3243 55.8479 40.5185C55.6064 40.7126 55.4277 40.9671 55.3117 41.282C55.1957 41.5968 55.1377 41.9366 55.1377 42.3011C55.1377 42.6657 55.1957 43.0043 55.3117 43.3168C55.4277 43.6293 55.6064 43.8814 55.8479 44.0732C56.0894 44.2649 56.3971 44.3608 56.7712 44.3608ZM64.8109 39.5455V45H63.9729V39.5455H64.8109ZM64.4842 42.1449V42.9261C64.2948 42.9972 64.1066 43.0599 63.9196 43.1143C63.7326 43.1664 63.5361 43.2079 63.3301 43.2386C63.1242 43.267 62.8981 43.2812 62.6519 43.2812C62.034 43.2812 61.538 43.1143 61.1639 42.7805C60.7922 42.4467 60.6064 41.946 60.6064 41.2784V39.5312H61.4445V41.2784C61.4445 41.5578 61.4977 41.7874 61.6043 41.9673C61.7108 42.1473 61.8552 42.281 62.0375 42.3686C62.2198 42.4562 62.4246 42.5 62.6519 42.5C63.007 42.5 63.3278 42.468 63.6142 42.4041C63.903 42.3378 64.193 42.2514 64.4842 42.1449Z" fill="#101828"/>
</svg>
