<svg width="20" height="22" viewBox="0 0 20 22" fill="none" xmlns="http://www.w3.org/2000/svg">
<g clip-path="url(#clip0_6604_515)">
<path d="M0 6.48388C0 3.27707 2.5184 0.677429 5.625 0.677429H14.375C17.4816 0.677429 20 3.27707 20 6.48388V15.5161C20 18.723 17.4816 21.3226 14.375 21.3226H5.625C2.5184 21.3226 0 18.723 0 15.5161V6.48388Z" fill="#1E1B3E"/>
<path d="M10.8369 6.89016C11.3757 4.55898 14.2414 3.83105 15.7667 5.63791C17.2568 7.40302 16.2543 10.1705 14.0079 10.4933L12.5643 10.7008C11.1606 10.9026 10.0083 11.9481 9.63435 13.3592L9.28306 14.685C8.68687 16.935 5.90285 17.5924 4.41829 15.8338C2.90118 14.0367 3.99462 11.2215 6.29423 11.0041L7.5 10.89C8.97394 10.7506 10.1975 9.65626 10.541 8.17011L10.8369 6.89016Z" fill="white"/>
</g>
<defs>
<clipPath id="clip0_6604_515">
<rect width="20" height="20.6452" fill="white" transform="translate(0 0.677429)"/>
</clipPath>
</defs>
</svg>
