<svg width="70" height="47" viewBox="0 0 70 47" fill="none" xmlns="http://www.w3.org/2000/svg">
<rect x="0.333252" width="69.6667" height="47" rx="8" fill="#EFF2F8"/>
<mask id="mask0_4474_24180" style="mask-type:alpha" maskUnits="userSpaceOnUse" x="29" y="8" width="13" height="12">
<rect x="29.1665" y="8" width="12" height="12" fill="#D9D9D9"/>
</mask>
<g mask="url(#mask0_4474_24180)">
<path d="M32.6665 17.0001C32.5248 17.0001 32.4061 16.9522 32.3103 16.8563C32.2144 16.7605 32.1665 16.6417 32.1665 16.5001V15.5001H38.6665V11.0001H39.6665C39.8082 11.0001 39.9269 11.048 40.0228 11.1438C40.1186 11.2397 40.1665 11.3584 40.1665 11.5001V19.0001L38.1665 17.0001H32.6665ZM30.1665 16.5001V9.50007C30.1665 9.3584 30.2144 9.23965 30.3103 9.14382C30.4061 9.04799 30.5248 9.00007 30.6665 9.00007H37.1665C37.3082 9.00007 37.4269 9.04799 37.5228 9.14382C37.6186 9.23965 37.6665 9.3584 37.6665 9.50007V14.0001C37.6665 14.1417 37.6186 14.2605 37.5228 14.3563C37.4269 14.4522 37.3082 14.5001 37.1665 14.5001H32.1665L30.1665 16.5001ZM36.6665 13.5001V10.0001H31.1665V13.5001H36.6665Z" fill="#667085"/>
</g>
<path d="M8.64972 27.7273H9.70086L12.1725 33.7642H12.2577L14.7293 27.7273H15.7804V35H14.9565V29.4744H14.8855L12.6128 35H11.8173L9.54461 29.4744H9.47359V35H8.64972V27.7273ZM19.7195 35.1136C19.1939 35.1136 18.7406 34.9976 18.3594 34.7656C17.9806 34.5312 17.6883 34.2045 17.4823 33.7855C17.2787 33.3641 17.1769 32.8741 17.1769 32.3153C17.1769 31.7566 17.2787 31.2642 17.4823 30.8381C17.6883 30.4096 17.9747 30.0758 18.3417 29.8366C18.711 29.5952 19.1419 29.4744 19.6343 29.4744C19.9184 29.4744 20.1989 29.5218 20.4759 29.6165C20.7529 29.7112 21.005 29.8651 21.2323 30.0781C21.4596 30.2888 21.6407 30.5682 21.7756 30.9162C21.9106 31.2642 21.978 31.6927 21.978 32.2017V32.5568H17.7735V31.8324H21.1258C21.1258 31.5246 21.0642 31.25 20.9411 31.0085C20.8204 30.767 20.6475 30.5765 20.4226 30.4368C20.2001 30.2971 19.9373 30.2273 19.6343 30.2273C19.3005 30.2273 19.0116 30.3101 18.7678 30.4759C18.5263 30.6392 18.3405 30.8523 18.2103 31.1151C18.0801 31.3778 18.015 31.6596 18.015 31.9602V32.4432C18.015 32.8551 18.086 33.2043 18.228 33.4908C18.3724 33.7749 18.5725 33.9915 18.8282 34.1406C19.0839 34.2874 19.381 34.3608 19.7195 34.3608C19.9397 34.3608 20.1385 34.33 20.3161 34.2685C20.496 34.2045 20.6511 34.1098 20.7813 33.9844C20.9115 33.8565 21.0121 33.6979 21.0831 33.5085L21.8928 33.7358C21.8076 34.0104 21.6643 34.2519 21.4631 34.4602C21.2619 34.6662 21.0133 34.8272 20.7174 34.9432C20.4214 35.0568 20.0888 35.1136 19.7195 35.1136ZM25.4688 35.1136C24.9574 35.1136 24.5171 34.9929 24.1478 34.7514C23.7785 34.5099 23.4944 34.1773 23.2955 33.7536C23.0966 33.3298 22.9972 32.8456 22.9972 32.3011C22.9972 31.7472 23.099 31.2583 23.3026 30.8345C23.5086 30.4084 23.795 30.0758 24.162 29.8366C24.5313 29.5952 24.9622 29.4744 25.4546 29.4744C25.8381 29.4744 26.1838 29.5455 26.4915 29.6875C26.7993 29.8295 27.0514 30.0284 27.2479 30.2841C27.4444 30.5398 27.5663 30.8381 27.6137 31.179H26.7756C26.7117 30.9304 26.5696 30.7102 26.3495 30.5185C26.1317 30.3243 25.8381 30.2273 25.4688 30.2273C25.1421 30.2273 24.8556 30.3125 24.6094 30.483C24.3656 30.651 24.175 30.889 24.0377 31.1967C23.9027 31.5021 23.8353 31.8608 23.8353 32.2727C23.8353 32.6941 23.9016 33.0611 24.0341 33.3736C24.1691 33.6861 24.3585 33.9287 24.6023 34.1016C24.8485 34.2744 25.1374 34.3608 25.4688 34.3608C25.6866 34.3608 25.8843 34.3229 26.0618 34.2472C26.2394 34.1714 26.3897 34.0625 26.5128 33.9205C26.6359 33.7784 26.7235 33.608 26.7756 33.4091H27.6137C27.5663 33.7311 27.4491 34.0211 27.2621 34.2791C27.0775 34.5348 26.8324 34.7384 26.527 34.8899C26.224 35.0391 25.8713 35.1136 25.4688 35.1136ZM31.0547 35.1136C30.5434 35.1136 30.103 34.9929 29.7337 34.7514C29.3644 34.5099 29.0803 34.1773 28.8814 33.7536C28.6826 33.3298 28.5831 32.8456 28.5831 32.3011C28.5831 31.7472 28.6849 31.2583 28.8885 30.8345C29.0945 30.4084 29.381 30.0758 29.7479 29.8366C30.1172 29.5952 30.5481 29.4744 31.0405 29.4744C31.4241 29.4744 31.7697 29.5455 32.0775 29.6875C32.3852 29.8295 32.6374 30.0284 32.8339 30.2841C33.0303 30.5398 33.1523 30.8381 33.1996 31.179H32.3616C32.2976 30.9304 32.1556 30.7102 31.9354 30.5185C31.7176 30.3243 31.4241 30.2273 31.0547 30.2273C30.728 30.2273 30.4416 30.3125 30.1954 30.483C29.9515 30.651 29.7609 30.889 29.6236 31.1967C29.4887 31.5021 29.4212 31.8608 29.4212 32.2727C29.4212 32.6941 29.4875 33.0611 29.6201 33.3736C29.755 33.6861 29.9444 33.9287 30.1883 34.1016C30.4345 34.2744 30.7233 34.3608 31.0547 34.3608C31.2725 34.3608 31.4702 34.3229 31.6478 34.2472C31.8253 34.1714 31.9757 34.0625 32.0988 33.9205C32.2219 33.7784 32.3095 33.608 32.3616 33.4091H33.1996C33.1523 33.7311 33.0351 34.0211 32.8481 34.2791C32.6634 34.5348 32.4184 34.7384 32.113 34.8899C31.8099 35.0391 31.4572 35.1136 31.0547 35.1136ZM36.7117 35.1136C36.1861 35.1136 35.7328 34.9976 35.3516 34.7656C34.9728 34.5312 34.6804 34.2045 34.4745 33.7855C34.2709 33.3641 34.1691 32.8741 34.1691 32.3153C34.1691 31.7566 34.2709 31.2642 34.4745 30.8381C34.6804 30.4096 34.9669 30.0758 35.3339 29.8366C35.7032 29.5952 36.134 29.4744 36.6265 29.4744C36.9106 29.4744 37.1911 29.5218 37.4681 29.6165C37.7451 29.7112 37.9972 29.8651 38.2245 30.0781C38.4517 30.2888 38.6329 30.5682 38.7678 30.9162C38.9027 31.2642 38.9702 31.6927 38.9702 32.2017V32.5568H34.7657V31.8324H38.1179C38.1179 31.5246 38.0564 31.25 37.9333 31.0085C37.8125 30.767 37.6397 30.5765 37.4148 30.4368C37.1923 30.2971 36.9295 30.2273 36.6265 30.2273C36.2927 30.2273 36.0038 30.3101 35.76 30.4759C35.5185 30.6392 35.3327 30.8523 35.2025 31.1151C35.0723 31.3778 35.0071 31.6596 35.0071 31.9602V32.4432C35.0071 32.8551 35.0782 33.2043 35.2202 33.4908C35.3646 33.7749 35.5647 33.9915 35.8204 34.1406C36.076 34.2874 36.3732 34.3608 36.7117 34.3608C36.9319 34.3608 37.1307 34.33 37.3083 34.2685C37.4882 34.2045 37.6433 34.1098 37.7735 33.9844C37.9037 33.8565 38.0043 33.6979 38.0753 33.5085L38.885 33.7358C38.7998 34.0104 38.6565 34.2519 38.4553 34.4602C38.2541 34.6662 38.0055 34.8272 37.7096 34.9432C37.4136 35.0568 37.081 35.1136 36.7117 35.1136ZM43.8956 31.8892V32.6705H40.8843V31.8892H43.8956ZM41.0831 29.5455V35H40.2451V29.5455H41.0831ZM44.5348 29.5455V35H43.6968V29.5455H44.5348ZM45.483 36.5625V34.2188H45.9375C46.0488 34.1027 46.1447 33.9773 46.2252 33.8423C46.3057 33.7074 46.3755 33.5476 46.4347 33.3629C46.4963 33.1759 46.5483 32.9486 46.591 32.6811C46.6336 32.4112 46.6714 32.0857 46.7046 31.7045L46.8892 29.5455H50.3552V34.2188H51.1932V36.5625H50.3552V35H46.3211V36.5625H45.483ZM46.8892 34.2188H49.5171V30.3267H47.6705L47.5285 31.7045C47.4693 32.2751 47.3959 32.7734 47.3083 33.1996C47.2207 33.6257 47.081 33.9654 46.8892 34.2188ZM51.9647 35L54.1806 32.2301L51.9931 29.5455H52.9874L54.8056 31.875H55.2602V29.5455H56.0982V31.875H56.5386L58.3568 29.5455H59.3511L57.1778 32.2301L59.3795 35H58.371L56.5244 32.6562H56.0982V35H55.2602V32.6562H54.834L52.9732 35H51.9647ZM61.1879 35.0568C61.0127 35.0568 60.8624 34.9941 60.7369 34.8686C60.6114 34.7431 60.5487 34.5928 60.5487 34.4176C60.5487 34.2424 60.6114 34.0921 60.7369 33.9666C60.8624 33.8411 61.0127 33.7784 61.1879 33.7784C61.3631 33.7784 61.5134 33.8411 61.6389 33.9666C61.7644 34.0921 61.8271 34.2424 61.8271 34.4176C61.8271 34.5336 61.7975 34.6402 61.7383 34.7372C61.6815 34.8343 61.6046 34.9124 61.5075 34.9716C61.4128 35.0284 61.3063 35.0568 61.1879 35.0568Z" fill="#101828"/>
</svg>
