<svg width="70" height="47" viewBox="0 0 70 47" fill="none" xmlns="http://www.w3.org/2000/svg">
<rect width="69.6667" height="47" rx="8" fill="#EFF2F8"/>
<mask id="mask0_4474_24192" style="mask-type:alpha" maskUnits="userSpaceOnUse" x="28" y="8" width="13" height="12">
<rect x="28.8333" y="8" width="12" height="12" fill="#D9D9D9"/>
</mask>
<g mask="url(#mask0_4474_24192)">
<path d="M29.8333 19V10C29.8333 9.725 29.9312 9.48958 30.127 9.29375C30.3228 9.09792 30.5583 9 30.8333 9H35.8833C35.8499 9.16667 35.8333 9.33333 35.8333 9.5C35.8333 9.66667 35.8499 9.83333 35.8833 10H30.8333V16.5625L31.4083 16H38.8333V11.95C39.0249 11.9083 39.2041 11.8521 39.3708 11.7812C39.5374 11.7104 39.6916 11.6167 39.8333 11.5V16C39.8333 16.275 39.7353 16.5104 39.5395 16.7063C39.3437 16.9021 39.1083 17 38.8333 17H31.8333L29.8333 19ZM38.3333 11C37.9166 11 37.5624 10.8542 37.2708 10.5625C36.9791 10.2708 36.8333 9.91667 36.8333 9.5C36.8333 9.08333 36.9791 8.72917 37.2708 8.4375C37.5624 8.14583 37.9166 8 38.3333 8C38.7499 8 39.1041 8.14583 39.3958 8.4375C39.6874 8.72917 39.8333 9.08333 39.8333 9.5C39.8333 9.91667 39.6874 10.2708 39.3958 10.5625C39.1041 10.8542 38.7499 11 38.3333 11Z" fill="#667085"/>
</g>
<path d="M7.45976 35.0994V34.2756H7.91431C8.0895 34.2756 8.23628 34.2412 8.35465 34.1726C8.47539 34.1039 8.57482 34.0152 8.65294 33.9062C8.73344 33.7973 8.79972 33.6837 8.85181 33.5653L8.96544 33.2955L6.45124 27.7273H7.40294L9.40578 32.2443L11.2382 27.7273H12.1757L9.66147 33.821C9.56203 34.0483 9.4484 34.259 9.32056 34.4531C9.19508 34.6473 9.02345 34.8035 8.80564 34.9219C8.59021 35.0402 8.29783 35.0994 7.92851 35.0994H7.45976ZM12.8024 35V29.5455H15.0326C15.6197 29.5455 16.0861 29.678 16.4317 29.9432C16.7774 30.2083 16.9502 30.5587 16.9502 30.9943C16.9502 31.3258 16.8519 31.5826 16.6554 31.7649C16.4589 31.9448 16.2068 32.0668 15.899 32.1307C16.1003 32.1591 16.2956 32.2301 16.485 32.3438C16.6767 32.4574 16.8354 32.6136 16.9608 32.8125C17.0863 33.009 17.149 33.2505 17.149 33.5369C17.149 33.8163 17.078 34.0661 16.936 34.2862C16.7939 34.5064 16.5903 34.6804 16.3252 34.8082C16.06 34.9361 15.7428 35 15.3735 35H12.8024ZM13.5979 34.233H15.3735C15.6623 34.233 15.8884 34.1643 16.0517 34.027C16.2151 33.8897 16.2968 33.7027 16.2968 33.4659C16.2968 33.1842 16.2151 32.9628 16.0517 32.8018C15.8884 32.6385 15.6623 32.5568 15.3735 32.5568H13.5979V34.233ZM13.5979 31.8324H15.0326C15.2575 31.8324 15.4504 31.8016 15.6114 31.7401C15.7724 31.6761 15.8955 31.5862 15.9807 31.4702C16.0683 31.3518 16.1121 31.2121 16.1121 31.0511C16.1121 30.8215 16.0162 30.6416 15.8245 30.5114C15.6327 30.3788 15.3687 30.3125 15.0326 30.3125H13.5979V31.8324ZM20.7046 35.1136C20.179 35.1136 19.7257 34.9976 19.3445 34.7656C18.9657 34.5312 18.6734 34.2045 18.4674 33.7855C18.2638 33.3641 18.162 32.8741 18.162 32.3153C18.162 31.7566 18.2638 31.2642 18.4674 30.8381C18.6734 30.4096 18.9598 30.0758 19.3268 29.8366C19.6961 29.5952 20.127 29.4744 20.6194 29.4744C20.9035 29.4744 21.184 29.5218 21.461 29.6165C21.738 29.7112 21.9901 29.8651 22.2174 30.0781C22.4447 30.2888 22.6258 30.5682 22.7607 30.9162C22.8957 31.2642 22.9631 31.6927 22.9631 32.2017V32.5568H18.7586V31.8324H22.1109C22.1109 31.5246 22.0493 31.25 21.9262 31.0085C21.8055 30.767 21.6326 30.5765 21.4077 30.4368C21.1852 30.2971 20.9224 30.2273 20.6194 30.2273C20.2856 30.2273 19.9968 30.3101 19.7529 30.4759C19.5114 30.6392 19.3256 30.8523 19.1954 31.1151C19.0652 31.3778 19.0001 31.6596 19.0001 31.9602V32.4432C19.0001 32.8551 19.0711 33.2043 19.2131 33.4908C19.3575 33.7749 19.5576 33.9915 19.8133 34.1406C20.069 34.2874 20.3661 34.3608 20.7046 34.3608C20.9248 34.3608 21.1236 34.33 21.3012 34.2685C21.4811 34.2045 21.6362 34.1098 21.7664 33.9844C21.8966 33.8565 21.9972 33.6979 22.0682 33.5085L22.8779 33.7358C22.7927 34.0104 22.6495 34.2519 22.4482 34.4602C22.247 34.6662 21.9984 34.8272 21.7025 34.9432C21.4066 35.0568 21.0739 35.1136 20.7046 35.1136ZM23.6556 36.5625V34.2188H24.1102C24.2214 34.1027 24.3173 33.9773 24.3978 33.8423C24.4783 33.7074 24.5481 33.5476 24.6073 33.3629C24.6689 33.1759 24.7209 32.9486 24.7636 32.6811C24.8062 32.4112 24.8441 32.0857 24.8772 31.7045L25.0619 29.5455H28.5278V34.2188H29.3658V36.5625H28.5278V35H24.4937V36.5625H23.6556ZM25.0619 34.2188H27.6897V30.3267H25.8431L25.7011 31.7045C25.6419 32.2751 25.5685 32.7734 25.4809 33.1996C25.3933 33.6257 25.2536 33.9654 25.0619 34.2188ZM32.6941 35.1136C32.2017 35.1136 31.7697 34.9964 31.398 34.7621C31.0287 34.5277 30.7398 34.1998 30.5315 33.7784C30.3255 33.357 30.2225 32.8646 30.2225 32.3011C30.2225 31.733 30.3255 31.237 30.5315 30.8132C30.7398 30.3894 31.0287 30.0604 31.398 29.826C31.7697 29.5916 32.2017 29.4744 32.6941 29.4744C33.1866 29.4744 33.6174 29.5916 33.9868 29.826C34.3584 30.0604 34.6473 30.3894 34.8532 30.8132C35.0616 31.237 35.1657 31.733 35.1657 32.3011C35.1657 32.8646 35.0616 33.357 34.8532 33.7784C34.6473 34.1998 34.3584 34.5277 33.9868 34.7621C33.6174 34.9964 33.1866 35.1136 32.6941 35.1136ZM32.6941 34.3608C33.0682 34.3608 33.376 34.2649 33.6174 34.0732C33.8589 33.8814 34.0376 33.6293 34.1537 33.3168C34.2697 33.0043 34.3277 32.6657 34.3277 32.3011C34.3277 31.9366 34.2697 31.5968 34.1537 31.282C34.0376 30.9671 33.8589 30.7126 33.6174 30.5185C33.376 30.3243 33.0682 30.2273 32.6941 30.2273C32.3201 30.2273 32.0123 30.3243 31.7708 30.5185C31.5294 30.7126 31.3506 30.9671 31.2346 31.282C31.1186 31.5968 31.0606 31.9366 31.0606 32.3011C31.0606 32.6657 31.1186 33.0043 31.2346 33.3168C31.3506 33.6293 31.5294 33.8814 31.7708 34.0732C32.0123 34.2649 32.3201 34.3608 32.6941 34.3608ZM39.428 33.8636L41.3314 29.5455H42.1268L39.7689 35H39.0871L36.7717 29.5455H37.553L39.428 33.8636ZM37.2831 29.5455V35H36.445V29.5455H37.2831ZM41.5729 35V29.5455H42.4109V35H41.5729ZM43.4621 35V34.2188H43.6609C43.8243 34.2188 43.9604 34.1868 44.0693 34.1229C44.1782 34.0566 44.2658 33.9418 44.3321 33.7784C44.4008 33.6127 44.4528 33.383 44.4883 33.0895C44.5262 32.7936 44.5535 32.4171 44.57 31.9602L44.6695 29.5455H48.3058V35H47.4678V30.3267H45.4649L45.3797 32.2727C45.3607 32.7202 45.3205 33.1143 45.2589 33.4553C45.1998 33.7938 45.1086 34.0779 44.9855 34.3075C44.8648 34.5372 44.7038 34.71 44.5026 34.826C44.3013 34.942 44.0492 35 43.7462 35H43.4621ZM52.1304 35.1136C51.6048 35.1136 51.1515 34.9976 50.7703 34.7656C50.3915 34.5312 50.0991 34.2045 49.8932 33.7855C49.6896 33.3641 49.5878 32.8741 49.5878 32.3153C49.5878 31.7566 49.6896 31.2642 49.8932 30.8381C50.0991 30.4096 50.3856 30.0758 50.7526 29.8366C51.1219 29.5952 51.5527 29.4744 52.0452 29.4744C52.3293 29.4744 52.6098 29.5218 52.8868 29.6165C53.1638 29.7112 53.4159 29.8651 53.6432 30.0781C53.8705 30.2888 54.0516 30.5682 54.1865 30.9162C54.3214 31.2642 54.3889 31.6927 54.3889 32.2017V32.5568H50.1844V31.8324H53.5366C53.5366 31.5246 53.4751 31.25 53.352 31.0085C53.2312 30.767 53.0584 30.5765 52.8335 30.4368C52.611 30.2971 52.3482 30.2273 52.0452 30.2273C51.7114 30.2273 51.4225 30.3101 51.1787 30.4759C50.9372 30.6392 50.7514 30.8523 50.6212 31.1151C50.491 31.3778 50.4258 31.6596 50.4258 31.9602V32.4432C50.4258 32.8551 50.4969 33.2043 50.6389 33.4908C50.7833 33.7749 50.9834 33.9915 51.2391 34.1406C51.4947 34.2874 51.7919 34.3608 52.1304 34.3608C52.3506 34.3608 52.5494 34.33 52.727 34.2685C52.9069 34.2045 53.062 34.1098 53.1922 33.9844C53.3224 33.8565 53.423 33.6979 53.494 33.5085L54.3037 33.7358C54.2185 34.0104 54.0752 34.2519 53.874 34.4602C53.6728 34.6662 53.4242 34.8272 53.1283 34.9432C52.8323 35.0568 52.4997 35.1136 52.1304 35.1136ZM59.3143 31.8892V32.6705H56.303V31.8892H59.3143ZM56.5018 29.5455V35H55.6638V29.5455H56.5018ZM59.9535 29.5455V35H59.1155V29.5455H59.9535ZM62.0949 35.0568C61.9197 35.0568 61.7694 34.9941 61.6439 34.8686C61.5184 34.7431 61.4557 34.5928 61.4557 34.4176C61.4557 34.2424 61.5184 34.0921 61.6439 33.9666C61.7694 33.8411 61.9197 33.7784 62.0949 33.7784C62.2701 33.7784 62.4204 33.8411 62.5459 33.9666C62.6713 34.0921 62.7341 34.2424 62.7341 34.4176C62.7341 34.5336 62.7045 34.6402 62.6453 34.7372C62.5885 34.8343 62.5115 34.9124 62.4145 34.9716C62.3198 35.0284 62.2133 35.0568 62.0949 35.0568Z" fill="#101828"/>
</svg>
