<svg width="71" height="47" viewBox="0 0 71 47" fill="none" xmlns="http://www.w3.org/2000/svg">
<rect x="0.666748" width="69.6667" height="47" rx="8" fill="#EFF2F8"/>
<mask id="mask0_4474_24178" style="mask-type:alpha" maskUnits="userSpaceOnUse" x="29" y="8" width="13" height="12">
<rect x="29.5" y="8" width="12" height="12" fill="#D9D9D9"/>
</mask>
<g mask="url(#mask0_4474_24178)">
<path d="M39.475 18.5C38.4333 18.5 37.4042 18.2729 36.3875 17.8188C35.3708 17.3646 34.4458 16.7208 33.6125 15.8875C32.7792 15.0542 32.1354 14.1292 31.6813 13.1125C31.2271 12.0958 31 11.0667 31 10.025C31 9.875 31.05 9.75 31.15 9.65C31.25 9.55 31.375 9.5 31.525 9.5H33.55C33.6667 9.5 33.7708 9.53958 33.8625 9.61875C33.9542 9.69792 34.0083 9.79167 34.025 9.9L34.35 11.65C34.3667 11.7833 34.3625 11.8958 34.3375 11.9875C34.3125 12.0792 34.2667 12.1583 34.2 12.225L32.9875 13.45C33.1542 13.7583 33.3521 14.0563 33.5812 14.3438C33.8104 14.6312 34.0625 14.9083 34.3375 15.175C34.5958 15.4333 34.8667 15.6729 35.15 15.8938C35.4333 16.1146 35.7333 16.3167 36.05 16.5L37.225 15.325C37.3 15.25 37.3979 15.1937 37.5188 15.1562C37.6396 15.1188 37.7583 15.1083 37.875 15.125L39.6 15.475C39.7167 15.5083 39.8125 15.5687 39.8875 15.6562C39.9625 15.7438 40 15.8417 40 15.95V17.975C40 18.125 39.95 18.25 39.85 18.35C39.75 18.45 39.625 18.5 39.475 18.5ZM32.5125 12.5L33.3375 11.675L33.125 10.5H32.0125C32.0542 10.8417 32.1125 11.1792 32.1875 11.5125C32.2625 11.8458 32.3708 12.175 32.5125 12.5ZM36.9875 16.975C37.3125 17.1167 37.6438 17.2292 37.9813 17.3125C38.3188 17.3958 38.6583 17.45 39 17.475V16.375L37.825 16.1375L36.9875 16.975Z" fill="#667085"/>
</g>
<path d="M7.68706 28.5085V27.7273H13.1416V28.5085H10.8547V35H9.97399V28.5085H7.68706ZM15.8831 35.1136C15.3575 35.1136 14.9041 34.9976 14.523 34.7656C14.1442 34.5312 13.8518 34.2045 13.6459 33.7855C13.4423 33.3641 13.3405 32.8741 13.3405 32.3153C13.3405 31.7566 13.4423 31.2642 13.6459 30.8381C13.8518 30.4096 14.1383 30.0758 14.5052 29.8366C14.8746 29.5952 15.3054 29.4744 15.7979 29.4744C16.0819 29.4744 16.3625 29.5218 16.6395 29.6165C16.9165 29.7112 17.1686 29.8651 17.3959 30.0781C17.6231 30.2888 17.8042 30.5682 17.9392 30.9162C18.0741 31.2642 18.1416 31.6927 18.1416 32.2017V32.5568H13.9371V31.8324H17.2893C17.2893 31.5246 17.2278 31.25 17.1047 31.0085C16.9839 30.767 16.8111 30.5765 16.5862 30.4368C16.3637 30.2971 16.1009 30.2273 15.7979 30.2273C15.464 30.2273 15.1752 30.3101 14.9314 30.4759C14.6899 30.6392 14.5041 30.8523 14.3738 31.1151C14.2436 31.3778 14.1785 31.6596 14.1785 31.9602V32.4432C14.1785 32.8551 14.2496 33.2043 14.3916 33.4908C14.536 33.7749 14.7361 33.9915 14.9917 34.1406C15.2474 34.2874 15.5445 34.3608 15.8831 34.3608C16.1032 34.3608 16.3021 34.33 16.4797 34.2685C16.6596 34.2045 16.8147 34.1098 16.9449 33.9844C17.0751 33.8565 17.1757 33.6979 17.2467 33.5085L18.0564 33.7358C17.9711 34.0104 17.8279 34.2519 17.6267 34.4602C17.4255 34.6662 17.1769 34.8272 16.8809 34.9432C16.585 35.0568 16.2524 35.1136 15.8831 35.1136ZM18.9335 35V34.2188H19.1324C19.2957 34.2188 19.4318 34.1868 19.5407 34.1229C19.6497 34.0566 19.7372 33.9418 19.8035 33.7784C19.8722 33.6127 19.9243 33.383 19.9598 33.0895C19.9977 32.7936 20.0249 32.4171 20.0415 31.9602L20.1409 29.5455H23.7773V35H22.9392V30.3267H20.9363L20.8511 32.2727C20.8322 32.7202 20.7919 33.1143 20.7304 33.4553C20.6712 33.7938 20.58 34.0779 20.4569 34.3075C20.3362 34.5372 20.1752 34.71 19.974 34.826C19.7728 34.942 19.5206 35 19.2176 35H18.9335ZM25.9257 35.0568C25.7505 35.0568 25.6002 34.9941 25.4747 34.8686C25.3492 34.7431 25.2865 34.5928 25.2865 34.4176C25.2865 34.2424 25.3492 34.0921 25.4747 33.9666C25.6002 33.8411 25.7505 33.7784 25.9257 33.7784C26.1009 33.7784 26.2512 33.8411 26.3767 33.9666C26.5022 34.0921 26.5649 34.2424 26.5649 34.4176C26.5649 34.5336 26.5353 34.6402 26.4761 34.7372C26.4193 34.8343 26.3424 34.9124 26.2453 34.9716C26.1506 35.0284 26.0441 35.0568 25.9257 35.0568ZM30.5404 33.608H31.4353C31.4542 33.8542 31.5655 34.0412 31.7691 34.169C31.9751 34.2969 32.2426 34.3608 32.5716 34.3608C32.9078 34.3608 33.1955 34.2921 33.4346 34.1548C33.6737 34.0152 33.7932 33.7902 33.7932 33.4801C33.7932 33.2978 33.7483 33.1392 33.6583 33.0043C33.5683 32.867 33.4417 32.7604 33.2783 32.6847C33.115 32.6089 32.922 32.571 32.6995 32.571H31.762V31.8182H32.6995C33.0333 31.8182 33.2795 31.7424 33.4381 31.5909C33.5991 31.4394 33.6796 31.25 33.6796 31.0227C33.6796 30.7789 33.5932 30.5836 33.4204 30.4368C33.2475 30.2876 33.0025 30.2131 32.6853 30.2131C32.3657 30.2131 32.0993 30.2853 31.8863 30.4297C31.6732 30.5717 31.5608 30.7552 31.5489 30.9801H30.6682C30.6777 30.6866 30.7677 30.4273 30.9381 30.2024C31.1086 29.9751 31.3406 29.7976 31.6341 29.6697C31.9277 29.5395 32.2639 29.4744 32.6427 29.4744C33.0262 29.4744 33.3588 29.5419 33.6405 29.6768C33.9246 29.8094 34.1436 29.9905 34.2975 30.2202C34.4537 30.4474 34.5319 30.7055 34.5319 30.9943C34.5319 31.3021 34.4455 31.5507 34.2726 31.7401C34.0998 31.9295 33.8832 32.0644 33.6228 32.1449V32.2017C33.8287 32.2159 34.0075 32.2822 34.159 32.4006C34.3129 32.5166 34.4324 32.6693 34.5177 32.8587C34.6029 33.0457 34.6455 33.2528 34.6455 33.4801C34.6455 33.8116 34.5567 34.1004 34.3792 34.3466C34.2016 34.5904 33.9578 34.7798 33.6476 34.9148C33.3375 35.0473 32.9836 35.1136 32.5858 35.1136C32.2 35.1136 31.8543 35.0509 31.5489 34.9254C31.2435 34.7976 31.0009 34.6212 30.8209 34.3963C30.6434 34.169 30.5499 33.9062 30.5404 33.608ZM35.8227 35V29.5455H38.0528C38.6399 29.5455 39.1063 29.678 39.452 29.9432C39.7976 30.2083 39.9704 30.5587 39.9704 30.9943C39.9704 31.3258 39.8722 31.5826 39.6757 31.7649C39.4792 31.9448 39.2271 32.0668 38.9193 32.1307C39.1205 32.1591 39.3158 32.2301 39.5052 32.3438C39.697 32.4574 39.8556 32.6136 39.9811 32.8125C40.1066 33.009 40.1693 33.2505 40.1693 33.5369C40.1693 33.8163 40.0983 34.0661 39.9562 34.2862C39.8142 34.5064 39.6106 34.6804 39.3454 34.8082C39.0803 34.9361 38.7631 35 38.3937 35H35.8227ZM36.6182 34.233H38.3937C38.6826 34.233 38.9086 34.1643 39.072 34.027C39.2354 33.8897 39.317 33.7027 39.317 33.4659C39.317 33.1842 39.2354 32.9628 39.072 32.8018C38.9086 32.6385 38.6826 32.5568 38.3937 32.5568H36.6182V34.233ZM36.6182 31.8324H38.0528C38.2777 31.8324 38.4707 31.8016 38.6317 31.7401C38.7926 31.6761 38.9157 31.5862 39.001 31.4702C39.0886 31.3518 39.1324 31.2121 39.1324 31.0511C39.1324 30.8215 39.0365 30.6416 38.8447 30.5114C38.653 30.3788 38.389 30.3125 38.0528 30.3125H36.6182V31.8324ZM43.6539 35.1136C43.1614 35.1136 42.7294 34.9964 42.3577 34.7621C41.9884 34.5277 41.6995 34.1998 41.4912 33.7784C41.2852 33.357 41.1823 32.8646 41.1823 32.3011C41.1823 31.733 41.2852 31.237 41.4912 30.8132C41.6995 30.3894 41.9884 30.0604 42.3577 29.826C42.7294 29.5916 43.1614 29.4744 43.6539 29.4744C44.1463 29.4744 44.5771 29.5916 44.9465 29.826C45.3182 30.0604 45.607 30.3894 45.8129 30.8132C46.0213 31.237 46.1254 31.733 46.1254 32.3011C46.1254 32.8646 46.0213 33.357 45.8129 33.7784C45.607 34.1998 45.3182 34.5277 44.9465 34.7621C44.5771 34.9964 44.1463 35.1136 43.6539 35.1136ZM43.6539 34.3608C44.0279 34.3608 44.3357 34.2649 44.5771 34.0732C44.8186 33.8814 44.9974 33.6293 45.1134 33.3168C45.2294 33.0043 45.2874 32.6657 45.2874 32.3011C45.2874 31.9366 45.2294 31.5968 45.1134 31.282C44.9974 30.9671 44.8186 30.7126 44.5771 30.5185C44.3357 30.3243 44.0279 30.2273 43.6539 30.2273C43.2798 30.2273 42.972 30.3243 42.7306 30.5185C42.4891 30.7126 42.3103 30.9671 42.1943 31.282C42.0783 31.5968 42.0203 31.9366 42.0203 32.3011C42.0203 32.6657 42.0783 33.0043 42.1943 33.3168C42.3103 33.6293 42.4891 33.8814 42.7306 34.0732C42.972 34.2649 43.2798 34.3608 43.6539 34.3608ZM51.0553 31.8892V32.6705H48.0439V31.8892H51.0553ZM48.2428 29.5455V35H47.4047V29.5455H48.2428ZM51.6945 29.5455V35H50.8564V29.5455H51.6945ZM55.441 35.1136C54.9485 35.1136 54.5165 34.9964 54.1448 34.7621C53.7755 34.5277 53.4867 34.1998 53.2783 33.7784C53.0724 33.357 52.9694 32.8646 52.9694 32.3011C52.9694 31.733 53.0724 31.237 53.2783 30.8132C53.4867 30.3894 53.7755 30.0604 54.1448 29.826C54.5165 29.5916 54.9485 29.4744 55.441 29.4744C55.9334 29.4744 56.3643 29.5916 56.7336 29.826C57.1053 30.0604 57.3941 30.3894 57.6001 30.8132C57.8084 31.237 57.9126 31.733 57.9126 32.3011C57.9126 32.8646 57.8084 33.357 57.6001 33.7784C57.3941 34.1998 57.1053 34.5277 56.7336 34.7621C56.3643 34.9964 55.9334 35.1136 55.441 35.1136ZM55.441 34.3608C55.815 34.3608 56.1228 34.2649 56.3643 34.0732C56.6057 33.8814 56.7845 33.6293 56.9005 33.3168C57.0165 33.0043 57.0745 32.6657 57.0745 32.3011C57.0745 31.9366 57.0165 31.5968 56.9005 31.282C56.7845 30.9671 56.6057 30.7126 56.3643 30.5185C56.1228 30.3243 55.815 30.2273 55.441 30.2273C55.0669 30.2273 54.7591 30.3243 54.5177 30.5185C54.2762 30.7126 54.0974 30.9671 53.9814 31.282C53.8654 31.5968 53.8074 31.9366 53.8074 32.3011C53.8074 32.6657 53.8654 33.0043 53.9814 33.3168C54.0974 33.6293 54.2762 33.8814 54.5177 34.0732C54.7591 34.2649 55.0669 34.3608 55.441 34.3608ZM59.1919 35V29.5455H60.0299V31.9176H60.5839L62.5441 29.5455H63.6237L61.422 32.1733L63.6521 35H62.5725L60.7828 32.6989H60.0299V35H59.1919Z" fill="#101828"/>
</svg>
