<svg width="70" height="57" viewBox="0 0 70 57" fill="none" xmlns="http://www.w3.org/2000/svg">
<rect x="0.333252" width="69.6667" height="57" rx="8" fill="#EFF2F8"/>
<mask id="mask0_4474_24258" style="mask-type:alpha" maskUnits="userSpaceOnUse" x="23" y="8" width="25" height="24">
<rect x="23.1665" y="8" width="24" height="24" fill="#D9D9D9"/>
</mask>
<g mask="url(#mask0_4474_24258)">
<path d="M26.4742 28.3846C25.9755 28.3846 25.5496 28.208 25.1964 27.8547C24.8431 27.5015 24.6665 27.0756 24.6665 26.5769V14.5385H26.1665V26.5769C26.1665 26.6666 26.1954 26.7403 26.2531 26.798C26.3108 26.8557 26.3845 26.8846 26.4742 26.8846H42.6665V28.3846H26.4742ZM29.9742 24.8846C29.4755 24.8846 29.0495 24.708 28.6963 24.3548C28.3431 24.0016 28.1665 23.5756 28.1665 23.0769V12.3077C28.1665 11.809 28.3431 11.383 28.6963 11.0298C29.0495 10.6766 29.4755 10.5 29.9742 10.5H34.955L36.955 12.5H43.8588C44.3575 12.5 44.7835 12.6766 45.1367 13.0298C45.4899 13.383 45.6665 13.809 45.6665 14.3077V23.0769C45.6665 23.5756 45.4899 24.0016 45.1367 24.3548C44.7835 24.708 44.3575 24.8846 43.8588 24.8846H29.9742ZM29.9742 23.3846H43.8588C43.9485 23.3846 44.0223 23.3558 44.08 23.2981C44.1377 23.2404 44.1665 23.1667 44.1665 23.0769V14.3077C44.1665 14.218 44.1377 14.1442 44.08 14.0865C44.0223 14.0288 43.9485 14 43.8588 14H36.3415L34.3415 12H29.9742C29.8844 12 29.8107 12.0288 29.753 12.0865C29.6953 12.1442 29.6665 12.218 29.6665 12.3077V23.0769C29.6665 23.1667 29.6953 23.2404 29.753 23.2981C29.8107 23.3558 29.8844 23.3846 29.9742 23.3846Z" fill="#667085"/>
</g>
<path d="M8.32702 37.7273V38.5085H4.81849V45H3.93781V37.7273H8.32702ZM11.001 45.1136C10.5086 45.1136 10.0765 44.9964 9.70486 44.7621C9.33554 44.5277 9.04671 44.1998 8.83838 43.7784C8.63241 43.357 8.52943 42.8646 8.52943 42.3011C8.52943 41.733 8.63241 41.237 8.83838 40.8132C9.04671 40.3894 9.33554 40.0604 9.70486 39.826C10.0765 39.5916 10.5086 39.4744 11.001 39.4744C11.4934 39.4744 11.9243 39.5916 12.2936 39.826C12.6653 40.0604 12.9541 40.3894 13.1601 40.8132C13.3684 41.237 13.4726 41.733 13.4726 42.3011C13.4726 42.8646 13.3684 43.357 13.1601 43.7784C12.9541 44.1998 12.6653 44.5277 12.2936 44.7621C11.9243 44.9964 11.4934 45.1136 11.001 45.1136ZM11.001 44.3608C11.3751 44.3608 11.6828 44.2649 11.9243 44.0732C12.1658 43.8814 12.3445 43.6293 12.4605 43.3168C12.5765 43.0043 12.6345 42.6657 12.6345 42.3011C12.6345 41.9366 12.5765 41.5968 12.4605 41.282C12.3445 40.9671 12.1658 40.7126 11.9243 40.5185C11.6828 40.3243 11.3751 40.2273 11.001 40.2273C10.627 40.2273 10.3192 40.3243 10.0777 40.5185C9.83625 40.7126 9.65751 40.9671 9.5415 41.282C9.4255 41.5968 9.3675 41.9366 9.3675 42.3011C9.3675 42.6657 9.4255 43.0043 9.5415 43.3168C9.65751 43.6293 9.83625 43.8814 10.0777 44.0732C10.3192 44.2649 10.627 44.3608 11.001 44.3608ZM16.9678 45.1136C16.4565 45.1136 16.0161 44.9929 15.6468 44.7514C15.2775 44.5099 14.9934 44.1773 14.7945 43.7536C14.5957 43.3298 14.4962 42.8456 14.4962 42.3011C14.4962 41.7472 14.598 41.2583 14.8016 40.8345C15.0076 40.4084 15.294 40.0758 15.661 39.8366C16.0303 39.5952 16.4612 39.4744 16.9536 39.4744C17.3371 39.4744 17.6828 39.5455 17.9905 39.6875C18.2983 39.8295 18.5504 40.0284 18.7469 40.2841C18.9434 40.5398 19.0654 40.8381 19.1127 41.179H18.2746C18.2107 40.9304 18.0687 40.7102 17.8485 40.5185C17.6307 40.3243 17.3371 40.2273 16.9678 40.2273C16.6411 40.2273 16.3547 40.3125 16.1084 40.483C15.8646 40.651 15.674 40.889 15.5367 41.1967C15.4018 41.5021 15.3343 41.8608 15.3343 42.2727C15.3343 42.6941 15.4006 43.0611 15.5332 43.3736C15.6681 43.6861 15.8575 43.9287 16.1013 44.1016C16.3476 44.2744 16.6364 44.3608 16.9678 44.3608C17.1856 44.3608 17.3833 44.3229 17.5609 44.2472C17.7384 44.1714 17.8887 44.0625 18.0119 43.9205C18.135 43.7784 18.2226 43.608 18.2746 43.4091H19.1127C19.0654 43.7311 18.9482 44.0211 18.7611 44.2791C18.5765 44.5348 18.3315 44.7384 18.0261 44.8899C17.723 45.0391 17.3703 45.1136 16.9678 45.1136ZM20.9486 45.0568C20.7735 45.0568 20.6231 44.9941 20.4976 44.8686C20.3722 44.7431 20.3094 44.5928 20.3094 44.4176C20.3094 44.2424 20.3722 44.0921 20.4976 43.9666C20.6231 43.8411 20.7735 43.7784 20.9486 43.7784C21.1238 43.7784 21.2742 43.8411 21.3996 43.9666C21.5251 44.0921 21.5878 44.2424 21.5878 44.4176C21.5878 44.5336 21.5583 44.6402 21.4991 44.7372C21.4422 44.8343 21.3653 44.9124 21.2682 44.9716C21.1735 45.0284 21.067 45.0568 20.9486 45.0568ZM25.9043 47.0455V39.5455H26.7139V40.4119H26.8133C26.8749 40.3172 26.9601 40.1965 27.069 40.0497C27.1803 39.9006 27.3389 39.768 27.5449 39.652C27.7532 39.5336 28.0349 39.4744 28.39 39.4744C28.8493 39.4744 29.2542 39.5893 29.6045 39.8189C29.9549 40.0485 30.2284 40.3741 30.4248 40.7955C30.6213 41.2169 30.7196 41.714 30.7196 42.2869C30.7196 42.8646 30.6213 43.3653 30.4248 43.7891C30.2284 44.2105 29.9561 44.5372 29.6081 44.7692C29.2601 44.9988 28.8588 45.1136 28.4043 45.1136C28.0539 45.1136 27.7733 45.0556 27.5626 44.9396C27.3519 44.8213 27.1898 44.6875 27.0761 44.5384C26.9625 44.3868 26.8749 44.2614 26.8133 44.1619H26.7423V47.0455H25.9043ZM26.7281 42.2727C26.7281 42.6847 26.7885 43.0481 26.9092 43.3629C27.03 43.6754 27.2063 43.9205 27.4383 44.098C27.6704 44.2732 27.9544 44.3608 28.2906 44.3608C28.641 44.3608 28.9334 44.2685 29.1677 44.0838C29.4045 43.8968 29.582 43.6458 29.7004 43.331C29.8212 43.0137 29.8815 42.661 29.8815 42.2727C29.8815 41.8892 29.8223 41.5436 29.704 41.2358C29.588 40.9257 29.4116 40.6806 29.1748 40.5007C28.9405 40.3184 28.6457 40.2273 28.2906 40.2273C27.9497 40.2273 27.6632 40.3137 27.4312 40.4865C27.1992 40.657 27.024 40.8961 26.9057 41.2038C26.7873 41.5092 26.7281 41.8655 26.7281 42.2727ZM34.2849 45.1136C33.7594 45.1136 33.306 44.9976 32.9248 44.7656C32.5461 44.5312 32.2537 44.2045 32.0477 43.7855C31.8441 43.3641 31.7423 42.8741 31.7423 42.3153C31.7423 41.7566 31.8441 41.2642 32.0477 40.8381C32.2537 40.4096 32.5401 40.0758 32.9071 39.8366C33.2764 39.5952 33.7073 39.4744 34.1997 39.4744C34.4838 39.4744 34.7643 39.5218 35.0413 39.6165C35.3183 39.7112 35.5704 39.8651 35.7977 40.0781C36.025 40.2888 36.2061 40.5682 36.341 40.9162C36.476 41.2642 36.5435 41.6927 36.5435 42.2017V42.5568H32.3389V41.8324H35.6912C35.6912 41.5246 35.6296 41.25 35.5065 41.0085C35.3858 40.767 35.213 40.5765 34.9881 40.4368C34.7655 40.2971 34.5027 40.2273 34.1997 40.2273C33.8659 40.2273 33.5771 40.3101 33.3332 40.4759C33.0918 40.6392 32.9059 40.8523 32.7757 41.1151C32.6455 41.3778 32.5804 41.6596 32.5804 41.9602V42.4432C32.5804 42.8551 32.6514 43.2043 32.7935 43.4908C32.9379 43.7749 33.1379 43.9915 33.3936 44.1406C33.6493 44.2874 33.9464 44.3608 34.2849 44.3608C34.5051 44.3608 34.704 44.33 34.8815 44.2685C35.0614 44.2045 35.2165 44.1098 35.3467 43.9844C35.4769 43.8565 35.5775 43.6979 35.6486 43.5085L36.4582 43.7358C36.373 44.0104 36.2298 44.2519 36.0285 44.4602C35.8273 44.6662 35.5787 44.8272 35.2828 44.9432C34.9869 45.0568 34.6543 45.1136 34.2849 45.1136ZM40.1052 45.1136C39.5797 45.1136 39.1263 44.9976 38.7452 44.7656C38.3664 44.5312 38.074 44.2045 37.868 43.7855C37.6644 43.3641 37.5626 42.8741 37.5626 42.3153C37.5626 41.7566 37.6644 41.2642 37.868 40.8381C38.074 40.4096 38.3605 40.0758 38.7274 39.8366C39.0967 39.5952 39.5276 39.4744 40.02 39.4744C40.3041 39.4744 40.5847 39.5218 40.8616 39.6165C41.1386 39.7112 41.3908 39.8651 41.618 40.0781C41.8453 40.2888 42.0264 40.5682 42.1614 40.9162C42.2963 41.2642 42.3638 41.6927 42.3638 42.2017V42.5568H38.1592V41.8324H41.5115C41.5115 41.5246 41.4499 41.25 41.3268 41.0085C41.2061 40.767 41.0333 40.5765 40.8084 40.4368C40.5858 40.2971 40.323 40.2273 40.02 40.2273C39.6862 40.2273 39.3974 40.3101 39.1535 40.4759C38.9121 40.6392 38.7262 40.8523 38.596 41.1151C38.4658 41.3778 38.4007 41.6596 38.4007 41.9602V42.4432C38.4007 42.8551 38.4717 43.2043 38.6138 43.4908C38.7582 43.7749 38.9582 43.9915 39.2139 44.1406C39.4696 44.2874 39.7667 44.3608 40.1052 44.3608C40.3254 44.3608 40.5243 44.33 40.7018 44.2685C40.8818 44.2045 41.0368 44.1098 41.167 43.9844C41.2972 43.8565 41.3979 43.6979 41.4689 43.5085L42.2785 43.7358C42.1933 44.0104 42.0501 44.2519 41.8489 44.4602C41.6476 44.6662 41.399 44.8272 41.1031 44.9432C40.8072 45.0568 40.4746 45.1136 40.1052 45.1136ZM45.8545 45.1136C45.3432 45.1136 44.9028 44.9929 44.5335 44.7514C44.1642 44.5099 43.8801 44.1773 43.6812 43.7536C43.4824 43.3298 43.3829 42.8456 43.3829 42.3011C43.3829 41.7472 43.4847 41.2583 43.6883 40.8345C43.8943 40.4084 44.1808 40.0758 44.5477 39.8366C44.917 39.5952 45.3479 39.4744 45.8403 39.4744C46.2239 39.4744 46.5695 39.5455 46.8773 39.6875C47.185 39.8295 47.4372 40.0284 47.6337 40.2841C47.8302 40.5398 47.9521 40.8381 47.9994 41.179H47.1614C47.0974 40.9304 46.9554 40.7102 46.7352 40.5185C46.5174 40.3243 46.2239 40.2273 45.8545 40.2273C45.5278 40.2273 45.2414 40.3125 44.9952 40.483C44.7513 40.651 44.5607 40.889 44.4234 41.1967C44.2885 41.5021 44.221 41.8608 44.221 42.2727C44.221 42.6941 44.2873 43.0611 44.4199 43.3736C44.5548 43.6861 44.7442 43.9287 44.9881 44.1016C45.2343 44.2744 45.5231 44.3608 45.8545 44.3608C46.0723 44.3608 46.27 44.3229 46.4476 44.2472C46.6251 44.1714 46.7755 44.0625 46.8986 43.9205C47.0217 43.7784 47.1093 43.608 47.1614 43.4091H47.9994C47.9521 43.7311 47.8349 44.0211 47.6479 44.2791C47.4632 44.5348 47.2182 44.7384 46.9128 44.8899C46.6097 45.0391 46.257 45.1136 45.8545 45.1136ZM48.7949 40.3267V39.5455H53.2267V40.3267H51.4369V45H50.5989V40.3267H48.7949ZM54.4492 47.0455V39.5455H55.2588V40.4119H55.3583C55.4198 40.3172 55.505 40.1965 55.6139 40.0497C55.7252 39.9006 55.8838 39.768 56.0898 39.652C56.2981 39.5336 56.5799 39.4744 56.935 39.4744C57.3943 39.4744 57.7991 39.5893 58.1495 39.8189C58.4998 40.0485 58.7733 40.3741 58.9698 40.7955C59.1663 41.2169 59.2645 41.714 59.2645 42.2869C59.2645 42.8646 59.1663 43.3653 58.9698 43.7891C58.7733 44.2105 58.501 44.5372 58.153 44.7692C57.805 44.9988 57.4037 45.1136 56.9492 45.1136C56.5988 45.1136 56.3183 45.0556 56.1076 44.9396C55.8969 44.8213 55.7347 44.6875 55.621 44.5384C55.5074 44.3868 55.4198 44.2614 55.3583 44.1619H55.2872V47.0455H54.4492ZM55.273 42.2727C55.273 42.6847 55.3334 43.0481 55.4541 43.3629C55.5749 43.6754 55.7513 43.9205 55.9833 44.098C56.2153 44.2732 56.4994 44.3608 56.8355 44.3608C57.1859 44.3608 57.4783 44.2685 57.7127 44.0838C57.9494 43.8968 58.127 43.6458 58.2453 43.331C58.3661 43.0137 58.4264 42.661 58.4264 42.2727C58.4264 41.8892 58.3673 41.5436 58.2489 41.2358C58.1329 40.9257 57.9565 40.6806 57.7198 40.5007C57.4854 40.3184 57.1907 40.2273 56.8355 40.2273C56.4946 40.2273 56.2082 40.3137 55.9762 40.4865C55.7442 40.657 55.569 40.8961 55.4506 41.2038C55.3322 41.5092 55.273 41.8655 55.273 42.2727ZM61.2674 41.5199H62.8299C63.4691 41.5199 63.9579 41.6821 64.2965 42.0064C64.635 42.3307 64.8043 42.7415 64.8043 43.2386C64.8043 43.5653 64.7285 43.8625 64.577 44.13C64.4255 44.3951 64.203 44.607 63.9094 44.7656C63.6158 44.9219 63.256 45 62.8299 45H60.5429V39.5455H61.381V44.2188H62.8299C63.1613 44.2188 63.4335 44.1312 63.6466 43.956C63.8597 43.7808 63.9662 43.5559 63.9662 43.2812C63.9662 42.9924 63.8597 42.7569 63.6466 42.5746C63.4335 42.3923 63.1613 42.3011 62.8299 42.3011H61.2674V41.5199ZM65.6708 45V39.5455H66.5088V45H65.6708Z" fill="#101828"/>
</svg>
